HIERARCHY
ROOT Hips
{
	OFFSET -0.001795 -0.223333 0.028219
	CHANNELS 6 Xposition Yposition Zposition Zrotation Yrotation Xrotation 
	JOINT LeftUpLeg
	{
		OFFSET 0.069520 -0.091406 -0.006815
		CHANNELS 3 Zrotation Yrotation Xrotation
		JOINT LeftLeg
		{
			OFFSET 0.034277 -0.375199 -0.004496
			CHANNELS 3 Zrotation Yrotation Xrotation
			JOINT LeftFoot
			{
				OFFSET -0.013596 -0.397961 -0.043693
				CHANNELS 3 Zrotation Yrotation Xrotation
				JOINT LeftToe
				{
					OFFSET 0.026358 -0.055791 0.119288
					CHANNELS 3 Zrotation Yrotation Xrotation
					End Site
					{
						OFFSET 0.000000 0.000000 0.000000
					}
				}
			}
		}
	}
	JOINT RightUpLeg
	{
		OFFSET -0.067670 -0.090522 -0.004320
		CHANNELS 3 Zrotation Yrotation Xrotation
		JOINT RightLeg
		{
			OFFSET -0.038290 -0.382569 -0.008850
			CHANNELS 3 Zrotation Yrotation Xrotation
			JOINT RightFoot
			{
				OFFSET 0.015774 -0.398415 -0.042312
				CHANNELS 3 Zrotation Yrotation Xrotation
				JOINT RightToe
				{
					OFFSET -0.025372 -0.048144 0.123348
					CHANNELS 3 Zrotation Yrotation Xrotation
					End Site
					{
						OFFSET 0.000000 0.000000 0.000000
					}
				}
			}
		}
	}
	JOINT Spine
	{
		OFFSET -0.002533 0.108963 -0.026696
		CHANNELS 3 Zrotation Yrotation Xrotation
		JOINT Spine1
		{
			OFFSET 0.005487 0.135180 0.001092
			CHANNELS 3 Zrotation Yrotation Xrotation
			JOINT Spine2
			{
				OFFSET 0.001457 0.052922 0.025425
				CHANNELS 3 Zrotation Yrotation Xrotation
				JOINT Neck
				{
					OFFSET -0.002778 0.213870 -0.042857
					CHANNELS 3 Zrotation Yrotation Xrotation
					JOINT Head
					{
						OFFSET 0.005152 0.064970 0.051349
						CHANNELS 3 Zrotation Yrotation Xrotation
						End Site
						{
							OFFSET 0.000000 0.000000 0.000000
						}
					}
				}
				JOINT LeftShoulder
				{
					OFFSET 0.078845 0.121749 -0.034090
					CHANNELS 3 Zrotation Yrotation Xrotation
					JOINT LeftArm
					{
						OFFSET 0.090977 0.030469 -0.008868
						CHANNELS 3 Zrotation Yrotation Xrotation
						JOINT LeftForeArm
						{
							OFFSET 0.259612 -0.012772 -0.027456
							CHANNELS 3 Zrotation Yrotation Xrotation
							JOINT LeftHand
							{
								OFFSET 0.249234 0.008986 -0.001171
								CHANNELS 3 Zrotation Yrotation Xrotation
								End Site
								{
									OFFSET 0.000000 0.000000 0.000000
								}
							}
						}
					}
				}
				JOINT RightShoulder
				{
					OFFSET -0.081759 0.118833 -0.038615
					CHANNELS 3 Zrotation Yrotation Xrotation
					JOINT RightArm
					{
						OFFSET -0.096012 0.032551 -0.009143
						CHANNELS 3 Zrotation Yrotation Xrotation
						JOINT RightForeArm
						{
							OFFSET -0.253742 -0.013329 -0.021401
							CHANNELS 3 Zrotation Yrotation Xrotation
							JOINT RightHand
							{
								OFFSET -0.255298 0.007772 -0.005559
								CHANNELS 3 Zrotation Yrotation Xrotation
								End Site
								{
									OFFSET 0.000000 0.000000 0.000000
								}
							}
						}
					}
				}
			}
		}
	}
}
MOTION
Frames: 7
Frame Time: 0.050000
-0.057545 0.936107 -0.036663 -0.557741 17.409647 -2.525682 8.628047 -0.447176 0.890571 -4.173440 0.263131 -3.329168 6.736118 16.901587 14.850518 0.000000 0.000000 0.000000 -3.369993 0.046463 -1.808635 2.679690 -0.399299 3.147889 -6.192917 -14.963315 10.035714 0.000000 0.000000 0.000000 7.985842 0.115915 -2.029345 -2.219992 0.865666 2.539237 -5.705924 4.730431 16.007961 9.845807 -1.808547 -24.347643 0.000000 0.000000 0.000000 -23.854757 -27.830552 9.123210 -41.259222 -15.008743 0.896220 29.561326 -73.243546 -22.783890 0.000000 0.000000 0.000000 25.670411 13.516354 12.032471 51.894581 23.718140 2.770171 -17.684835 62.930724 -3.780344 0.000000 0.000000 0.000000 
-0.054814 0.936569 -0.037874 -0.622114 17.499291 -2.441564 8.344723 -0.428826 0.826419 -4.322248 0.262842 -3.605669 7.020127 17.215627 14.544875 0.000000 0.000000 0.000000 -3.493432 0.035762 -1.736929 2.596842 -0.383858 2.900481 -6.177116 -14.922547 10.067836 0.000000 0.000000 0.000000 7.741451 0.105589 -1.923011 -2.428256 0.975792 2.416101 -5.705661 5.008992 16.072329 10.019105 -1.842531 -24.463320 0.000000 0.000000 0.000000 -23.685309 -27.920684 9.051355 -41.364044 -14.466214 0.741443 25.563337 -73.967926 -20.089207 0.000000 0.000000 0.000000 25.355382 13.107447 11.792837 52.898455 23.460095 2.827143 -16.547029 62.731495 -2.975460 0.000000 0.000000 0.000000 
-0.053134 0.937059 -0.039062 -0.611680 17.545858 -2.258764 8.111237 -0.415559 0.833571 -4.423857 0.260044 -3.907931 7.085917 17.243278 14.239604 0.000000 0.000000 0.000000 -3.488952 0.054468 -1.971845 2.546948 -0.374533 2.685590 -6.322991 -15.193853 10.209897 0.000000 0.000000 0.000000 7.439267 0.101231 -1.897370 -2.624457 1.060479 2.548179 -5.752578 5.009373 15.979373 10.036480 -1.886021 -24.280876 0.000000 0.000000 0.000000 -23.203513 -27.887539 9.020676 -41.826620 -14.505426 0.722835 22.675324 -74.008636 -17.910643 0.000000 0.000000 0.000000 25.303356 12.945895 11.670113 53.538379 23.268566 2.861571 -14.070036 63.502808 -1.496198 0.000000 0.000000 0.000000 
-0.052440 0.937297 -0.040268 -0.707366 17.477640 -1.943878 8.048538 -0.415166 0.615682 -4.504452 0.261591 -3.964295 7.383480 17.628941 14.237230 0.000000 0.000000 0.000000 -3.462836 0.086280 -2.337203 2.379593 -0.344014 2.509062 -6.242326 -15.005927 10.392769 0.000000 0.000000 0.000000 7.117484 0.081557 -1.728526 -2.695087 1.094552 2.536163 -5.873231 5.047081 15.869902 10.044309 -1.847626 -24.502170 0.000000 0.000000 0.000000 -22.867184 -27.828902 8.983689 -42.255750 -14.740747 0.778812 19.759254 -73.932894 -15.669542 0.000000 0.000000 0.000000 25.127297 12.908291 11.576422 54.177973 23.650360 3.208049 -11.520682 64.206061 0.050470 0.000000 0.000000 0.000000 
-0.052591 0.937465 -0.041612 -0.785477 17.226533 -1.684855 7.884748 -0.403583 0.449645 -4.472947 0.260923 -4.124307 7.686292 18.009878 14.212099 0.000000 0.000000 0.000000 -3.199645 0.147097 -2.931991 2.323620 -0.332153 2.619267 -6.233064 -14.998611 10.321177 0.000000 0.000000 0.000000 6.897986 0.040120 -1.301205 -2.685228 1.087514 2.589696 -6.065714 5.055540 15.599561 10.048629 -1.885918 -24.390712 0.000000 0.000000 0.000000 -22.546871 -28.070077 9.170391 -42.496233 -15.122238 0.883476 19.983562 -73.865076 -15.796121 0.000000 0.000000 0.000000 24.772883 13.312744 11.672912 54.418346 24.223425 3.616696 -9.245057 65.669485 1.468519 0.000000 0.000000 0.000000 
-0.053202 0.937422 -0.042984 -0.875123 16.899396 -1.126279 7.704820 -0.398570 -0.170060 -4.287081 0.263269 -3.891936 8.006094 18.413823 14.132395 0.000000 0.000000 0.000000 -3.127830 0.213277 -3.693902 2.244152 -0.315036 2.521366 -6.221191 -14.970839 10.463329 0.000000 0.000000 0.000000 6.717493 -0.000014 -0.959979 -2.698663 1.086084 2.710365 -6.271211 5.234130 15.071988 10.093749 -1.937511 -24.207334 0.000000 0.000000 0.000000 -22.458507 -28.353306 9.338756 -42.574872 -15.719300 1.111799 21.087307 -73.639457 -16.576446 0.000000 0.000000 0.000000 24.601634 14.040870 12.054078 54.033520 25.106233 4.074102 -8.175019 66.981164 2.113876 0.000000 0.000000 0.000000 
-0.054088 0.937581 -0.044320 -0.852686 16.317003 -0.788872 7.592013 -0.390134 -0.526506 -4.318778 0.273248 -3.733236 8.262262 18.736578 14.153856 0.000000 0.000000 0.000000 -3.015824 0.274769 -4.380413 2.132706 -0.291082 2.514714 -6.219837 -14.992025 10.609506 0.000000 0.000000 0.000000 6.617843 -0.040753 -0.555539 -2.840860 1.161726 2.717397 -6.467333 5.570918 14.806713 10.084900 -1.927832 -24.176878 0.000000 0.000000 0.000000 -22.570396 -28.961853 9.697523 -42.247549 -16.292445 1.326255 23.817697 -73.445124 -18.580434 0.000000 0.000000 0.000000 24.248640 14.925658 12.512775 53.408009 26.433941 4.671350 -9.218055 68.094360 1.425929 0.000000 0.000000 0.000000 
